<svg xmlns="http://www.w3.org/2000/svg" viewBox="0 0 256 256">
  <path
    d="M 237.044 82.488 C 225.499 71.214 210.172 65 193.888 65 C 175.708 65 157.906 72.803 145.024 86.409 C 137.604 94.259 132.051 102.836 127.921 111.537 C 123.801 102.836 118.259 94.259 110.827 86.409 C 109.18 84.668 107.458 83.023 105.66 81.493 C 100.213 87.527 96.768 95.761 96.458 104.883 C 107.258 117.407 113.788 134.196 115.877 154.887 C 116.047 156.543 116.198 158.226 116.302 159.94 C 116.508 163.179 116.575 166.431 116.508 169.68 C 114.42 167.54 112.389 165.35 110.487 163.046 C 109.424 161.764 108.407 160.482 107.429 159.19 C 93.975 141.721 87.163 123.89 87.163 106.182 C 87.163 81.705 105.454 61.788 127.94 61.788 C 136.332 61.788 144.142 64.559 150.635 69.303 C 157.54 64.502 165.133 60.87 173.093 58.535 C 161.549 46.212 145.571 38.561 127.94 38.561 C 92.836 38.561 64.282 68.901 64.282 106.192 C 64.282 137.974 80.013 162.94 93.222 178.296 C 95.217 180.62 97.315 182.877 99.462 185.095 C 96.684 185.016 93.907 184.828 91.162 184.52 C 89.29 184.321 87.437 184.081 85.629 183.805 C 64.337 180.61 47.506 172.607 35.558 159.956 C 18.857 142.326 18.469 115.084 34.674 99.241 C 40.713 93.341 48.475 89.649 56.914 88.579 C 58.787 80.146 61.967 72.247 66.24 65.132 C 64.818 65.039 63.396 64.991 61.987 64.991 C 45.69 64.991 30.371 71.205 18.837 82.478 C -6.471 107.195 -6.36 149.193 19.071 176.069 C 40.731 198.968 69.117 205.889 89.09 207.659 C 93.402 208.052 97.831 208.244 102.246 208.244 C 105.228 208.244 108.21 208.166 111.165 207.974 C 112.763 207.901 114.373 207.775 115.963 207.621 C 118.758 207.384 121.466 207.038 124.036 206.656 C 124.948 206.514 125.683 206.369 126.199 206.291 L 126.304 206.263 L 126.736 206.187 L 126.81 206.187 C 126.81 206.187 126.82 206.177 126.82 206.177 L 127.253 206.082 C 127.478 206.034 127.686 205.958 127.912 205.9 C 128.136 205.958 128.345 206.045 128.581 206.091 L 129.021 206.187 L 129.042 206.187 C 129.042 206.187 129.106 206.197 129.106 206.197 L 129.53 206.272 L 129.653 206.291 C 130.178 206.39 130.905 206.514 131.808 206.656 C 134.385 207.058 137.095 207.384 139.88 207.641 C 144.397 208.052 149.016 208.261 153.607 208.261 C 158.198 208.261 162.451 208.073 166.761 207.679 C 186.744 205.91 215.112 198.986 236.781 176.088 C 262.212 149.2 262.324 107.224 237.025 82.499 L 237.044 82.488 Z M 220.316 159.967 C 207.34 173.687 188.636 181.948 164.71 184.52 C 161.961 184.817 159.176 185.009 156.392 185.085 C 158.545 182.866 160.656 180.62 162.65 178.296 C 163.561 177.234 164.492 176.118 165.443 174.958 C 177.957 159.439 191.589 135.765 191.589 106.202 C 191.589 103.362 191.42 100.559 191.101 97.807 C 187.31 98.112 183.553 99.089 180.026 100.666 C 175.849 102.521 171.983 105.206 168.653 108.611 C 168.077 125.306 161.465 142.066 148.95 158.521 C 147.811 160.043 146.617 161.553 145.375 163.064 C 143.474 165.359 141.441 167.557 139.354 169.7 C 139.28 166.448 139.354 163.19 139.559 159.956 C 141.161 135.566 148.546 116.241 161.52 102.531 C 170.101 93.455 181.851 88.253 193.764 88.253 C 204.189 88.253 213.936 92.155 221.19 99.25 C 237.402 115.084 237.007 142.326 220.316 159.977 L 220.316 159.967 Z"
    style="stroke-width: 3.097px;"></path>
</svg>